<svg width="1582" height="260" viewBox="0 0 1582 260" fill="none" xmlns="http://www.w3.org/2000/svg">
<path d="M243.299 0.507812L135.446 111.837L135.157 112.136L135.397 112.475C169.368 160.417 205.105 208.586 239.666 256.188L165.271 256.208C145.099 226.54 119.724 192.824 97.9971 162.911L93.6934 156.967C92.7571 155.586 92.2782 154.805 91.7109 154.149C91.1265 153.474 90.4475 152.927 89.1123 151.95L88.8135 151.732L88.5176 151.953C85.8582 153.943 81.3318 158.526 76.8594 163.258C72.3847 167.992 67.8932 172.952 65.3477 175.669L65.2119 175.813L65.2129 176.012L65.2588 256.22H0.5V2.85645C21.7731 3.19961 43.9411 2.90484 65.2627 2.88379L65.4512 95.8232L65.4541 97.0518L66.3096 96.1709L159.338 0.5L243.299 0.507812Z" stroke="#AC5518"/>
<path d="M1059.3 178.221L1059.22 178.101L989.82 64.4756C979.351 47.3302 962.764 21.9397 953.819 4.50586L1026.1 4.5C1032.13 16.08 1040.63 30.0895 1047.46 41.8311L1048.81 44.165L1091.83 119.105L1092.24 119.828L1092.69 119.123C1114.12 84.9858 1138.55 40.0795 1159.12 4.50098L1231.75 4.56934L1179.55 89.9619L1125.51 178.302L1125.43 178.422V178.562L1125.4 257.836L1059.3 257.827V178.221Z" stroke="#AC5518"/>
<path d="M439.433 2L439.504 1.50514L439.469 1.5H439.433V2ZM519.488 77.5576L519.988 77.5647V77.5647L519.488 77.5576ZM479.91 154.915L479.745 154.443L479.203 154.632L479.465 155.143L479.91 154.915ZM532.081 256.559V257.059H532.9L532.526 256.33L532.081 256.559ZM461.92 256.559L461.473 256.782L461.611 257.059H461.92V256.559ZM418.744 170.206L419.191 169.982L419.053 169.706H418.744V170.206ZM385.463 170.206V169.706H384.963V170.206H385.463ZM385.463 256.559V257.059H385.963V256.559H385.463ZM318 256.559H317.5V257.059H318V256.559ZM318 2V1.5H317.5V2H318ZM384.562 62.2666V61.7666H384.062V62.2666H384.562ZM384.562 108.142H384.062V108.642H384.562V108.142ZM430.438 108.142V108.642H430.445L430.452 108.641L430.438 108.142ZM457.423 84.7549L457.917 84.6759L457.917 84.6759L457.423 84.7549ZM430.438 62.2666V61.7666V61.7666V62.2666ZM439.433 2L439.361 2.49486C452.794 4.43521 472.907 10.529 489.558 22.4874C506.196 34.4366 519.345 52.2123 518.988 77.5506L519.488 77.5576L519.988 77.5647C520.351 51.8117 506.965 33.7575 490.141 21.6752C473.331 9.60207 453.056 3.46266 439.504 1.50514L439.433 2ZM519.488 77.5576L518.988 77.5506C518.271 128.466 492.41 150.025 479.745 154.443L479.91 154.915L480.075 155.387C493.196 150.81 519.266 128.832 519.988 77.5647L519.488 77.5576ZM479.91 154.915L479.465 155.143L531.636 256.787L532.081 256.559L532.526 256.33L480.355 154.687L479.91 154.915ZM532.081 256.559V256.059H461.92V256.559V257.059H532.081V256.559ZM461.92 256.559L462.367 256.335L419.191 169.982L418.744 170.206L418.297 170.43L461.473 256.782L461.92 256.559ZM418.744 170.206V169.706H385.463V170.206V170.706H418.744V170.206ZM385.463 170.206H384.963V256.559H385.463H385.963V170.206H385.463ZM385.463 256.559V256.059H318V256.559V257.059H385.463V256.559ZM318 256.559H318.5V2H318H317.5V256.559H318ZM318 2V2.5H439.433V2V1.5H318V2ZM384.562 62.2666H384.062V108.142H384.562H385.062V62.2666H384.562ZM384.562 108.142V108.642H430.438V108.142V107.642H384.562V108.142ZM430.438 108.142L430.452 108.641C435.602 108.49 443.162 107.129 449.093 103.509C452.064 101.695 454.645 99.3015 456.296 96.1906C457.95 93.0737 458.652 89.2706 457.917 84.6759L457.423 84.7549L456.929 84.8339C457.633 89.2339 456.955 92.8141 455.412 95.7219C453.866 98.6356 451.432 100.909 448.572 102.655C442.839 106.155 435.467 107.493 430.423 107.642L430.438 108.142ZM457.423 84.7549L457.917 84.6759C456.452 75.5223 451.559 69.7812 446.039 66.3402C440.535 62.9099 434.414 61.7666 430.438 61.7666V62.2666V62.7666C434.257 62.7666 440.189 63.8725 445.51 67.1889C450.813 70.4945 455.515 75.9975 456.929 84.8339L457.423 84.7549ZM430.438 62.2666V61.7666H384.562V62.2666V62.7666H430.438V62.2666Z" fill="#AC5518"/>
<path d="M781.402 4L781.869 3.82029L781.746 3.5H781.402V4ZM879.448 258.559V259.059H880.177L879.915 258.379L879.448 258.559ZM807.488 258.559L807.015 258.72L807.13 259.059H807.488V258.559ZM792.196 213.583L792.67 213.422L792.554 213.083H792.196V213.583ZM695.95 213.583V213.083H695.605L695.483 213.405L695.95 213.583ZM678.859 258.559V259.059H679.204L679.327 258.736L678.859 258.559ZM606 258.559L605.535 258.376L605.267 259.059H606V258.559ZM705.845 4V3.5H705.504L705.379 3.81743L705.845 4ZM717.538 134.427L717.069 134.254L716.821 134.927H717.538V134.427ZM768.81 134.427V134.927H769.536L769.277 134.249L768.81 134.427ZM742.724 66.0654L743.191 65.8872L742.715 64.6414L742.254 65.8926L742.724 66.0654ZM781.402 4L780.936 4.17971L878.982 258.738L879.448 258.559L879.915 258.379L781.869 3.82029L781.402 4ZM879.448 258.559V258.059H807.488V258.559V259.059H879.448V258.559ZM807.488 258.559L807.962 258.398L792.67 213.422L792.196 213.583L791.723 213.744L807.015 258.72L807.488 258.559ZM792.196 213.583V213.083H695.95V213.583V214.083H792.196V213.583ZM695.95 213.583L695.483 213.405L678.392 258.381L678.859 258.559L679.327 258.736L696.418 213.761L695.95 213.583ZM678.859 258.559V258.059H606V258.559V259.059H678.859V258.559ZM606 258.559L606.465 258.741L706.31 4.18257L705.845 4L705.379 3.81743L605.535 258.376L606 258.559ZM705.845 4V4.5H781.402V4V3.5H705.845V4ZM717.538 134.427V134.927H768.81V134.427V133.927H717.538V134.427ZM768.81 134.427L769.277 134.249L743.191 65.8872L742.724 66.0654L742.256 66.2437L768.342 134.605L768.81 134.427ZM742.724 66.0654L742.254 65.8926L717.069 134.254L717.538 134.427L718.007 134.6L743.193 66.2383L742.724 66.0654Z" fill="#AC5518"/>
<path d="M1482.4 4L1482.87 3.82029L1482.75 3.5H1482.4V4ZM1580.45 258.559V259.059H1581.18L1580.91 258.379L1580.45 258.559ZM1508.49 258.559L1508.01 258.72L1508.13 259.059H1508.49V258.559ZM1493.2 213.583L1493.67 213.422L1493.55 213.083H1493.2V213.583ZM1396.95 213.583V213.083H1396.61L1396.48 213.405L1396.95 213.583ZM1379.86 258.559V259.059H1380.2L1380.33 258.736L1379.86 258.559ZM1307 258.559L1306.53 258.376L1306.27 259.059H1307V258.559ZM1406.84 4V3.5H1406.5L1406.38 3.81743L1406.84 4ZM1418.54 134.427L1418.07 134.254L1417.82 134.927H1418.54V134.427ZM1469.81 134.427V134.927H1470.54L1470.28 134.249L1469.81 134.427ZM1443.72 66.0654L1444.19 65.8872L1443.72 64.6414L1443.25 65.8926L1443.72 66.0654ZM1482.4 4L1481.94 4.17971L1579.98 258.738L1580.45 258.559L1580.91 258.379L1482.87 3.82029L1482.4 4ZM1580.45 258.559V258.059H1508.49V258.559V259.059H1580.45V258.559ZM1508.49 258.559L1508.96 258.398L1493.67 213.422L1493.2 213.583L1492.72 213.744L1508.01 258.72L1508.49 258.559ZM1493.2 213.583V213.083H1396.95V213.583V214.083H1493.2V213.583ZM1396.95 213.583L1396.48 213.405L1379.39 258.381L1379.86 258.559L1380.33 258.736L1397.42 213.761L1396.95 213.583ZM1379.86 258.559V258.059H1307V258.559V259.059H1379.86V258.559ZM1307 258.559L1307.47 258.741L1407.31 4.18257L1406.84 4L1406.38 3.81743L1306.53 258.376L1307 258.559ZM1406.84 4V4.5H1482.4V4V3.5H1406.84V4ZM1418.54 134.427V134.927H1469.81V134.427V133.927H1418.54V134.427ZM1469.81 134.427L1470.28 134.249L1444.19 65.8872L1443.72 66.0654L1443.26 66.2437L1469.34 134.605L1469.81 134.427ZM1443.72 66.0654L1443.25 65.8926L1418.07 134.254L1418.54 134.427L1419.01 134.6L1444.19 66.2383L1443.72 66.0654Z" fill="#AC5518"/>
</svg>
