<svg width="37" height="50" viewBox="0 0 37 50" fill="none" xmlns="http://www.w3.org/2000/svg">
<path d="M17.5497 0.0291401C18.8262 -0.0972812 24.4363 0.122993 24.99 1.99844C25.031 2.13687 25.0092 3.19467 25.0092 3.44167L25.0099 6.17106L25.0106 8.51154C25.011 9.01768 25.1077 9.9562 24.7669 10.3137C23.9541 11.1668 22.0648 11.5625 20.9288 11.6503C20.9351 11.938 20.9589 12.3946 20.9253 12.6674C21.6484 12.7762 23.4495 13.1763 23.6859 13.9859C23.7562 14.2272 23.7282 15.5632 23.7282 15.8872L23.7233 19.6908C26.1978 19.9973 30.2555 20.9148 32.0815 22.6867C34.113 24.6582 36.4498 29.0477 36.5157 31.8969C36.578 34.5962 35.615 38.3545 34.2758 40.7114C33.5992 41.9024 32.3609 43.4222 31.532 44.5411C31.0999 45.1242 30.6719 45.7097 30.2471 46.298C29.9519 46.7088 29.6704 47.163 29.3205 47.5286C27.4228 49.5132 21.6918 49.9299 19.0867 49.9926C15.8042 50.0528 10.593 49.7772 7.6632 47.9422C7.09738 47.5878 5.91505 45.7969 5.43297 45.1385C4.48723 43.8463 3.32489 42.4231 2.47297 41.0798C1.30117 39.2318 0.577314 36.675 0.205196 34.5297C0.0408132 33.582 -0.0901962 31.9459 0.0790541 30.9881C0.497119 28.6226 1.83259 26.0392 3.22295 24.0944C3.6934 23.4363 4.44646 22.6014 5.09394 22.1527C7.28186 20.6365 10.2435 20.1005 12.8002 19.6838C12.7947 19.4787 12.7977 19.2672 12.7989 19.0615C12.8077 17.4775 12.7842 15.8918 12.7998 14.3083C12.8009 14.2016 12.8679 13.8616 12.9302 13.7795C13.4709 13.0683 14.8343 12.8148 15.5962 12.6614C15.5893 12.3272 15.6024 11.9915 15.569 11.6596C14.5325 11.5583 12.7208 11.1728 11.9323 10.4964C11.6814 10.2812 11.5272 10.0379 11.5183 9.70528C11.5048 9.20258 11.5117 8.68593 11.5128 8.18308L11.5128 5.31935L11.5098 3.22044C11.5092 2.99464 11.489 2.07989 11.5385 1.94118C12.1186 0.313428 16.3524 0.0827558 17.5497 0.0291401Z" fill="#2E2832"/>
<path d="M4.89101 41.9261C4.40329 41.7692 3.58243 41.4656 3.14843 41.1949C2.8807 40.9813 2.63522 40.5439 2.48228 40.2518C1.2651 37.929 0.0890741 33.7518 0.478283 31.1548C0.886718 28.4295 3.14808 24.2028 5.31307 22.516C6.94785 21.2423 10.7328 20.3607 12.7934 20.1257C12.8051 20.5499 12.7948 20.9939 12.7914 21.4197C12.7948 21.8044 12.7691 22.1035 13.0873 22.3781C14.162 23.3051 16.1822 23.3827 17.501 23.5186C17.5259 24.0877 17.4937 24.813 17.5322 25.3411C17.5571 25.1265 17.5112 24.5772 17.7069 24.4485L17.7644 24.4916C17.8117 24.6256 17.8057 24.6999 17.8124 24.8442C17.8439 24.4316 17.8386 23.9361 17.8435 23.5145L18.6906 23.5151C18.6917 23.9344 18.6735 24.7413 18.7145 25.1251L18.7187 25.0841C18.7362 24.9034 18.7169 24.5309 18.7453 24.4231L18.7933 24.4729C18.865 24.4518 18.877 24.4518 18.9431 24.4188L18.9554 24.4319L18.8847 24.4504L18.9302 24.4239C18.9806 24.5193 18.9729 30.6319 18.9606 31.2553L18.9953 31.2651C19.0247 30.5276 18.9981 29.5957 18.9981 28.8456C18.9897 27.0697 18.995 25.2939 19.0135 23.5181C20.38 23.3562 22.2588 23.3401 23.4197 22.3907C23.8841 22.011 23.7107 21.1884 23.73 20.5509L23.7247 20.1328C24.5992 20.1982 28.2118 20.9335 28.901 21.356C29.199 21.4401 29.615 21.6469 29.9074 21.78C32.7654 23.0738 34.2282 26.1473 35.4045 28.883C36.8718 32.2954 35.727 36.2953 34.3903 39.5633C33.8472 40.8934 33.3831 41.3868 32.002 41.806C31.1107 42.1177 30.2482 42.3912 29.3268 42.5936C28.4223 42.8352 26.9637 43.0867 26.0276 43.2148C20.0224 44.0367 13.5762 43.9516 7.64054 42.6951C6.94309 42.5477 5.54293 42.1975 4.89101 41.9261Z" fill="#0C13A9"/>
<path d="M4.89101 41.9261C4.40329 41.7692 3.58243 41.4656 3.14843 41.1949C2.8807 40.9813 2.63522 40.5439 2.48228 40.2518C1.2651 37.929 0.0890741 33.7518 0.478283 31.1548C0.886718 28.4295 3.14808 24.2028 5.31307 22.516C6.94785 21.2423 10.7328 20.3607 12.7934 20.1257C12.8051 20.5499 12.7948 20.9939 12.7914 21.4197C12.7476 21.5092 12.7522 21.5349 12.7421 21.6335C12.0165 21.938 10.9428 22.0338 10.1786 22.3557C9.36551 22.6983 8.46491 23.0898 7.72799 23.5901C5.94776 24.9839 4.6258 27.3103 3.71606 29.353C3.46882 29.9081 2.92931 31.4993 2.84957 32.073C2.45434 34.9162 3.2815 37.9346 4.29413 40.5729C4.41996 40.9007 4.8866 41.6796 4.89101 41.9261Z" fill="#FFFEFF"/>
<path d="M29.9074 21.78C32.7654 23.0738 34.2281 26.1473 35.4044 28.883C36.8718 32.2954 35.727 36.2953 34.3903 39.5633C33.8471 40.8934 33.3831 41.3868 32.0019 41.806C31.1107 42.1177 30.2481 42.3912 29.3268 42.5936C29.7516 41.7566 30.5003 40.9704 31.0361 40.1772C32.0856 38.6234 32.71 36.9393 33.1548 35.1302C33.2749 34.6431 33.4665 34.074 33.5368 33.5802C33.6717 32.6354 33.844 31.6223 33.7981 30.6683C33.768 30.0478 33.6219 29.2395 33.4528 28.6389C33.3498 28.3217 33.1916 27.9932 33.0844 27.6801C32.384 25.6357 31.2711 23.7014 29.8937 22.0385C29.8349 21.9673 29.885 21.8653 29.9074 21.78Z" fill="#444AD5"/>
<path d="M17.8435 23.5146L18.6906 23.5153C18.6917 23.9346 18.6735 24.7414 18.7144 25.1252L18.7186 25.0842C18.7361 24.9035 18.7169 24.5311 18.7452 24.4232L18.7932 24.4731C18.865 24.452 18.8769 24.4519 18.9431 24.419L18.9554 24.4321L18.8846 24.4505L18.9301 24.424C18.9806 24.5194 18.9729 30.632 18.9606 31.2554L18.9953 31.2652C19.0555 34.6218 18.6059 37.2396 16.3581 39.8779C15.9433 40.2814 15.4761 41.1432 14.8676 41.2062C14.5794 41.2364 14.2477 40.9993 14.1437 40.7331C13.9739 40.2982 14.1848 40.0313 14.4663 39.7246C15.3396 38.7731 16.3541 37.519 16.8094 36.2944C17.5913 34.1904 17.5255 31.8441 17.5259 29.6364C17.528 28.1894 17.515 26.7718 17.5322 25.3413C17.557 25.1266 17.5112 24.5773 17.7069 24.4486L17.7643 24.4917C17.8116 24.6258 17.8057 24.7 17.8123 24.8444C17.8438 24.4317 17.8386 23.9362 17.8435 23.5146Z" fill="#FFFEFF"/>
<path d="M17.5322 25.3411C17.557 25.1265 17.5112 24.5772 17.7069 24.4485L17.7643 24.4916C17.8116 24.6256 17.8057 24.6999 17.8123 24.8442C17.8543 26.5031 17.82 28.1707 17.8214 29.831C17.8253 33.9006 17.9384 36.5513 14.9096 39.7391C14.7019 39.9576 14.4393 40.1804 14.4477 40.5113C14.4504 40.6153 14.4885 40.7256 14.5717 40.7932C14.6609 40.8654 14.7819 40.8699 14.8893 40.8468C15.4561 40.7263 16.9169 38.6111 17.2725 38.0137C18.2256 36.4126 18.5814 34.5363 18.6763 32.6935C18.7039 32.1581 18.6493 31.5925 18.7141 31.064C18.7277 31.2759 18.7144 31.4335 18.7929 31.6237L18.8394 31.7375L18.9088 31.7378C18.9711 31.5445 18.9599 31.4563 18.9606 31.2553L18.9953 31.2651C19.0555 34.6217 18.6059 37.2394 16.3581 39.8778C15.9433 40.2812 15.4761 41.1431 14.8676 41.2061C14.5794 41.2362 14.2477 40.9991 14.1437 40.733C13.9739 40.298 14.1848 40.0312 14.4663 39.7244C15.3396 38.7729 16.3541 37.5189 16.8094 36.2942C17.5913 34.1903 17.5255 31.8439 17.5259 29.6363C17.528 28.1893 17.515 26.7717 17.5322 25.3411Z" fill="url(#paint0_linear_303_133)"/>
<path d="M18.7144 25.1252L18.7186 25.0842C18.7361 24.9035 18.7169 24.531 18.7452 24.4232L18.7932 24.4731C18.865 24.4519 18.8769 24.4519 18.9431 24.4189L18.9554 24.432L18.8846 24.4505L18.9301 24.424C18.9806 24.5194 18.9729 30.632 18.9606 31.2554C18.9599 31.4564 18.9711 31.5446 18.9088 31.738L18.8394 31.7376L18.7929 31.6238C18.7144 31.4336 18.7277 31.276 18.7141 31.0642C18.6973 30.9181 18.7032 30.6804 18.7053 30.5287C18.7298 28.7336 18.6678 26.9185 18.7144 25.1252Z" fill="#010000"/>
<path d="M23.7247 20.1328C24.5992 20.1982 28.2118 20.9335 28.901 21.356C28.9934 21.4367 29.0004 21.4175 29.0348 21.5193L28.9836 21.5678C28.707 21.6182 27.1689 21.2787 26.776 21.2308C26.1414 21.1534 25.4368 21.0624 24.7914 20.9933C24.4826 20.9602 24.0893 20.9622 23.7948 20.908C23.7552 20.7651 23.7478 20.6998 23.73 20.551L23.7247 20.1328Z" fill="#FFFEFF"/>
<path d="M7.36142 26.2482C8.31375 26.182 9.06926 26.5827 9.41823 27.489C9.64246 28.0644 9.6279 28.7056 9.37772 29.2701C9.08796 29.9127 8.6776 30.2044 8.04679 30.4425C6.60875 30.5329 5.7508 29.6623 5.78855 28.2377C5.81538 27.2239 6.37229 26.5063 7.36142 26.2482Z" fill="#FFFEFF"/>
<path d="M10.9449 30.9499C11.9698 30.8319 12.1345 31.5901 12.0538 32.4162C11.8771 32.6617 11.7122 32.8459 11.4294 32.9625C11.239 32.9856 11.0424 33.0203 10.8634 32.9387C10.0159 32.5521 10.0084 31.2374 10.9449 30.9499Z" fill="#FFFEFF"/>
<path d="M3.46008 41.7817C3.68813 41.8128 5.0622 42.3672 5.46885 42.4849C6.7754 42.8634 8.09613 43.1776 9.44113 43.3968C16.2875 44.5129 26.7239 44.4565 33.1062 41.7214C32.326 42.8042 31.5104 43.8531 30.7186 44.9271C30.1285 45.6979 29.2975 47.0987 28.548 47.6359C27.7331 48.22 26.1583 48.6939 25.1459 48.9047C21.1169 49.7444 16.8446 49.7774 12.7794 49.1722C11.12 48.9225 9.27762 48.4659 7.84991 47.5606C7.4892 47.3284 6.83353 46.3444 6.55964 45.9658L5.39737 44.3801C4.75287 43.5067 4.0875 42.6666 3.46008 41.7817Z" fill="#444AD5"/>
<path d="M11.9308 2.9033C12.3701 3.09682 12.8101 3.42225 13.2962 3.55768C16.3583 4.41079 21.8621 4.63184 24.594 2.88281L24.5954 7.41145C24.5954 7.84219 24.6444 9.73665 24.5117 9.97629C24.4091 10.0919 24.2935 10.1956 24.1674 10.2854C22.1576 11.7313 13.4331 11.9534 11.935 9.85488C11.9022 9.06879 11.9259 8.11433 11.926 7.317L11.9308 2.9033Z" fill="#0C13A9"/>
<path d="M21.2054 5.65525C22.262 5.47732 23.2608 6.19522 23.4288 7.25334C23.5969 8.31146 22.8699 9.3036 21.8102 9.46189C20.7642 9.61815 19.7879 8.90256 19.6219 7.8582C19.4562 6.81384 20.1626 5.83084 21.2054 5.65525Z" fill="#2E2832"/>
<path d="M21.473 5.90771C23.5503 6.02349 23.5566 8.97607 21.598 9.20167C19.6064 9.18093 19.3676 6.19901 21.473 5.90771Z" fill="#FFFEFF"/>
<path d="M21.3847 6.60429C22.5431 6.57968 22.7242 8.12702 21.6508 8.49669C20.5505 8.51703 20.2973 7.0467 21.3847 6.60429Z" fill="#2E2832"/>
<path d="M21.4334 6.93848C21.493 6.9396 21.5336 6.93967 21.5931 6.95469C21.743 6.99139 21.8705 7.09064 21.9426 7.22735C22.1345 7.59117 21.9678 7.9931 21.6078 8.17204C20.9705 8.19134 20.7793 7.33035 21.4334 6.93848Z" fill="#FFFEFF"/>
<path d="M13.2398 14.8961C15.5795 16.1991 20.9802 16.2727 23.3104 14.8733C23.2929 15.4145 23.3619 18.8655 23.2515 19.107C21.5524 20.5323 14.8551 20.6045 13.2258 19.0402C13.1944 18.2184 13.2362 17.3055 13.2182 16.474C13.2117 16.1742 13.2011 15.1251 13.2398 14.8961Z" fill="#FFFEFF"/>
<path d="M17.6561 0.450397C19.6501 0.380568 22.4093 0.565822 24.1887 1.57225C24.4944 1.74514 24.7879 2.25198 24.4454 2.51995C23.0569 3.60592 20.582 3.7745 18.8892 3.85053C16.8888 3.91188 14.048 3.73671 12.2773 2.67922C11.9638 2.49201 11.7623 2.0218 12.0999 1.76087C13.4775 0.695989 15.9906 0.508213 17.6561 0.450397Z" fill="#444AD5"/>
<path d="M13.2139 19.5249C13.558 19.67 13.9339 19.9307 14.3377 20.0391C16.7461 20.6856 19.7073 20.6975 22.1149 20.0528C22.5001 19.9496 22.9795 19.7028 23.3157 19.522C23.301 19.951 23.3658 21.7569 23.2303 21.9825C23.1886 22.0262 23.1455 22.0687 23.1014 22.1098C22.4325 22.7352 20.317 23.014 19.3676 23.0657C17.7896 23.1517 14.3504 23.1054 13.2299 21.9192C13.191 21.2267 13.2162 20.2396 13.2139 19.5249Z" fill="#FFFEFF"/>
<path d="M15.4387 13.1171L15.5312 13.1174C15.6477 13.2725 15.5841 13.4614 15.5698 13.641C15.4838 14.7273 17.499 14.7674 18.213 14.7843C18.9502 14.8017 20.2151 14.6963 20.8045 14.1893C21.0006 14.0209 20.9421 13.3545 20.9365 13.0906C21.5038 13.1888 22.9407 13.493 23.2552 14.0936C23.4842 14.5312 22.664 14.8409 22.3496 14.9709C22.2259 15.0155 22.1009 15.0572 21.9752 15.0959C19.846 15.7345 15.72 15.7711 13.6704 14.7449C13.5151 14.6672 13.2741 14.4935 13.2345 14.3068C13.2144 14.2124 13.228 14.1056 13.283 14.0274C13.6479 13.5081 14.8717 13.2391 15.4387 13.1171Z" fill="#FFFEFF"/>
<path d="M16.0102 11.7251C16.3311 11.7451 16.6524 11.7668 16.9731 11.7897C18.1591 11.8741 19.334 11.7963 20.5187 11.7322C20.5201 12.356 20.5656 13.2183 20.4991 13.8477C20.4893 13.9396 20.3818 13.9831 20.3023 14.0312C20.1671 14.0826 20.0295 14.1279 19.8904 14.1669C18.857 14.4626 16.9767 14.4578 16.01 13.9165C15.9736 13.4113 15.9829 12.2269 16.0102 11.7251Z" fill="#FFFEFF"/>
<defs>
<linearGradient id="paint0_linear_303_133" x1="13.0285" y1="30.3276" x2="19.6274" y2="35.7042" gradientUnits="userSpaceOnUse">
<stop/>
<stop offset="1" stop-color="#372C3D"/>
</linearGradient>
</defs>
</svg>
