<svg width="552" height="1164" viewBox="0 0 552 1164" fill="none" xmlns="http://www.w3.org/2000/svg">
<line x1="88.0979" y1="931.893" x2="167.098" y2="898.893" stroke="#C6C6C6" stroke-width="1.5"/>
<line x1="116.052" y1="992.914" x2="192.052" y2="954.914" stroke="#C6C6C6" stroke-width="1.5"/>
<line x1="148.084" y1="1051.9" x2="221.329" y2="1008.82" stroke="#C6C6C6" stroke-width="1.5"/>
<line x1="184.048" y1="1108.57" x2="254.199" y2="1060.62" stroke="#C6C6C6" stroke-width="1.5"/>
<line x1="223.778" y1="1162.66" x2="290.51" y2="1110.06" stroke="#C6C6C6" stroke-width="1.5"/>
<line x1="63.1607" y1="870.974" x2="143.123" y2="840.883" stroke="#C6C6C6" stroke-width="1.5"/>
<line x1="41.1987" y1="806.859" x2="122.199" y2="785.859" stroke="#C6C6C6" stroke-width="1.5"/>
<line x1="21.7448" y1="742.104" x2="109.234" y2="723.851" stroke="#C6C6C6" stroke-width="1.5"/>
<line x1="9.28956" y1="675.645" x2="101.292" y2="663.841" stroke="#C6C6C6" stroke-width="1.5"/>
<line x1="0.0370846" y1="608.667" x2="92.6794" y2="604.075" stroke="#C6C6C6" stroke-width="1.5"/>
<line x1="0.395115" y1="540.835" x2="92.3951" y2="541.835" stroke="#C6C6C6" stroke-width="1.5"/>
<line x1="6.05487" y1="473.501" x2="97.8267" y2="480.053" stroke="#C6C6C6" stroke-width="1.5"/>
<line x1="15.7836" y1="406.633" x2="102.5" y2="419.844" stroke="#C6C6C6" stroke-width="1.5"/>
<line x1="29.5229" y1="340.474" x2="111.551" y2="358.853" stroke="#C6C6C6" stroke-width="1.5"/>
<line x1="42.5813" y1="278.861" x2="124.581" y2="300.861" stroke="#C6C6C6" stroke-width="1.5"/>
<line x1="65.6299" y1="214.875" x2="145.641" y2="242.275" stroke="#C6C6C6" stroke-width="1.5"/>
<line x1="88.6908" y1="150.899" x2="167.691" y2="185.899" stroke="#C6C6C6" stroke-width="1.5"/>
<line x1="127.691" y1="87.8992" x2="206.691" y2="122.899" stroke="#C6C6C6" stroke-width="1.5"/>
<line x1="174.761" y1="27.9349" x2="247.761" y2="69.9349" stroke="#C6C6C6" stroke-width="1.5"/>
<defs>
<linearGradient id="paint0_linear_303_83" x1="167.337" y1="540.603" x2="173.936" y2="545.98" gradientUnits="userSpaceOnUse">
<stop/>
<stop offset="1" stop-color="#372C3D"/>
</linearGradient>
<linearGradient id="paint1_linear_303_83" x1="169.337" y1="605.603" x2="175.936" y2="610.98" gradientUnits="userSpaceOnUse">
<stop/>
<stop offset="1" stop-color="#372C3D"/>
</linearGradient>
</defs>
</svg>
