<svg width="883" height="144" viewBox="0 0 883 144" fill="none" xmlns="http://www.w3.org/2000/svg">
<path d="M88.4531 0L135.898 0.00467263L75.4893 62.3598C94.4763 89.1561 114.454 116.076 133.767 142.684L91.7223 142.696C79.7499 125.077 64.462 104.88 51.8552 87.415C50.7864 85.8391 50.8553 85.7741 49.3701 84.6881C46.4597 86.8661 39.375 94.7987 36.5272 97.8384L36.5532 142.702H0L0.000573748 1.30618C12.0006 1.50567 24.5181 1.33387 36.5544 1.32444L36.66 53.2644L88.4531 0Z" fill="#4a2b20"/>
<path d="M644.413 2.00061L685.444 2.03898L656.169 49.9282L626.127 99.0333L626.11 143.377L588.808 143.371V98.9212L550.23 35.761C544.338 26.1119 534.926 11.7157 530 2.00357L570.804 2C574.38 8.88971 579.561 17.3559 583.498 24.1878L607.411 65.8449C619.348 46.8301 632.957 21.8098 644.413 2.00061Z" fill="#4a2b20"/>
<path d="M244.5 1C259.5 3.16667 289.4 14.6 289 43C288.6 71.4 274.167 83.5 267 86L296 142.5H257L233 94.5H214.5V142.5H177V1H244.5ZM214 34.5V60H239.5C245.167 59.8333 256.1 57 254.5 47C252.9 37 243.833 34.5 239.5 34.5H214Z" fill="#4a2b20"/>
<path d="M434.5 2L489 143.5H449L440.5 118.5H387L377.5 143.5H337L392.5 2H434.5ZM399 74.5H427.5L413 36.5L399 74.5Z" fill="#4a2b20"/>
<path d="M828.5 2L883 143.5H843L834.5 118.5H781L771.5 143.5H731L786.5 2H828.5ZM793 74.5H821.5L807 36.5L793 74.5Z" fill="#4a2b20"/>
</svg>
