<svg width="12" height="12" viewBox="0 0 12 12" fill="none" xmlns="http://www.w3.org/2000/svg">
<path d="M10.3125 1.3125H1.6875C1.48008 1.3125 1.3125 1.48008 1.3125 1.6875V10.3125C1.3125 10.5199 1.48008 10.6875 1.6875 10.6875H10.3125C10.5199 10.6875 10.6875 10.5199 10.6875 10.3125V1.6875C10.6875 1.48008 10.5199 1.3125 10.3125 1.3125ZM9.9375 9.9375H7.78008V7.05703H8.99883L9.18164 5.64258H7.78008V4.73906C7.78008 4.32891 7.89375 4.05 8.48086 4.05H9.22969V2.78438C9.09961 2.7668 8.65547 2.72813 8.1375 2.72813C7.05703 2.72813 6.31758 3.38789 6.31758 4.59844V5.64141H5.09648V7.05586H6.31875V9.9375H2.0625V2.0625H9.9375V9.9375Z" fill="black"/>
</svg>
