<svg width="12" height="12" viewBox="0 0 12 12" fill="none" xmlns="http://www.w3.org/2000/svg">
<path d="M11.25 5.96699C11.25 5.94121 11.25 5.91191 11.2488 5.87793C11.2477 5.78301 11.2453 5.67637 11.243 5.5627C11.2336 5.23574 11.2172 4.90996 11.1914 4.60293C11.1562 4.17988 11.1047 3.82715 11.0344 3.5623C10.9602 3.28592 10.8147 3.03385 10.6126 2.83128C10.4104 2.62872 10.1587 2.48277 9.88242 2.40801C9.55078 2.31895 8.90156 2.26387 7.9875 2.22988C7.55273 2.21348 7.0875 2.20293 6.62227 2.19707C6.45937 2.19473 6.3082 2.19355 6.17227 2.19238H5.82773C5.6918 2.19355 5.54062 2.19473 5.37773 2.19707C4.9125 2.20293 4.44727 2.21348 4.0125 2.22988C3.09844 2.26504 2.44805 2.32012 2.11758 2.40801C1.84125 2.48259 1.58938 2.62848 1.3872 2.83107C1.18502 3.03366 1.03964 3.28583 0.965625 3.5623C0.894141 3.82715 0.84375 4.17988 0.808594 4.60293C0.782812 4.90996 0.766406 5.23574 0.757031 5.5627C0.753516 5.67637 0.752344 5.78301 0.751172 5.87793C0.751172 5.91191 0.75 5.94121 0.75 5.96699V6.03262C0.75 6.0584 0.75 6.0877 0.751172 6.12168C0.752344 6.2166 0.754687 6.32324 0.757031 6.43691C0.766406 6.76387 0.782812 7.08965 0.808594 7.39668C0.84375 7.81973 0.895313 8.17246 0.965625 8.4373C1.11563 8.99863 1.55625 9.4416 2.11758 9.5916C2.44805 9.68066 3.09844 9.73574 4.0125 9.76973C4.44727 9.78613 4.9125 9.79668 5.37773 9.80254C5.54062 9.80488 5.6918 9.80606 5.82773 9.80723H6.17227C6.3082 9.80606 6.45937 9.80488 6.62227 9.80254C7.0875 9.79668 7.55273 9.78613 7.9875 9.76973C8.90156 9.73457 9.55195 9.67949 9.88242 9.5916C10.4437 9.4416 10.8844 8.9998 11.0344 8.4373C11.1059 8.17246 11.1562 7.81973 11.1914 7.39668C11.2172 7.08965 11.2336 6.76387 11.243 6.43691C11.2465 6.32324 11.2477 6.2166 11.2488 6.12168C11.2488 6.0877 11.25 6.0584 11.25 6.03262V5.96699ZM10.4062 6.02793C10.4062 6.05254 10.4063 6.07949 10.4051 6.11113C10.4039 6.20254 10.4016 6.30332 10.3992 6.4123C10.391 6.72402 10.3746 7.03574 10.35 7.32519C10.3184 7.70254 10.2738 8.01191 10.2188 8.21934C10.1461 8.49004 9.93281 8.70449 9.66328 8.77598C9.41719 8.8416 8.79727 8.89434 7.95469 8.92598C7.52812 8.94238 7.06875 8.95293 6.61055 8.95879C6.45 8.96113 6.30117 8.9623 6.16758 8.9623H5.83242L5.38945 8.95879C4.93125 8.95293 4.47305 8.94238 4.04531 8.92598C3.20273 8.89316 2.58164 8.8416 2.33672 8.77598C2.06719 8.70332 1.85391 8.49004 1.78125 8.21934C1.72617 8.01191 1.68164 7.70254 1.65 7.32519C1.62539 7.03574 1.61016 6.72402 1.60078 6.4123C1.59727 6.30332 1.59609 6.20137 1.59492 6.11113C1.59492 6.07949 1.59375 6.05137 1.59375 6.02793V5.97168C1.59375 5.94707 1.59375 5.92012 1.59492 5.88848C1.59609 5.79707 1.59844 5.69629 1.60078 5.5873C1.60898 5.27559 1.62539 4.96387 1.65 4.67441C1.68164 4.29707 1.72617 3.9877 1.78125 3.78027C1.85391 3.50957 2.06719 3.29512 2.33672 3.22363C2.58281 3.15801 3.20273 3.10527 4.04531 3.07363C4.47188 3.05723 4.93125 3.04668 5.38945 3.04082C5.55 3.03848 5.69883 3.0373 5.83242 3.0373H6.16758L6.61055 3.04082C7.06875 3.04668 7.52695 3.05723 7.95469 3.07363C8.79727 3.10645 9.41836 3.15801 9.66328 3.22363C9.93281 3.29629 10.1461 3.50957 10.2188 3.78027C10.2738 3.9877 10.3184 4.29707 10.35 4.67441C10.3746 4.96387 10.3898 5.27559 10.3992 5.5873C10.4027 5.69629 10.4039 5.79824 10.4051 5.88848C10.4051 5.92012 10.4062 5.94824 10.4062 5.97168V6.02793ZM4.95703 7.57012L7.67578 5.98809L4.95703 4.42949V7.57012Z" fill="black"/>
</svg>
