<svg width="12" height="12" viewBox="0 0 12 12" fill="none" xmlns="http://www.w3.org/2000/svg">
<path d="M5.99957 3.59625C4.66949 3.59625 3.59605 4.66968 3.59605 5.99976C3.59605 7.32984 4.66949 8.40328 5.99957 8.40328C7.32965 8.40328 8.40308 7.32984 8.40308 5.99976C8.40308 4.66968 7.32965 3.59625 5.99957 3.59625ZM5.99957 7.56187C5.13941 7.56187 4.43746 6.85992 4.43746 5.99976C4.43746 5.13961 5.13941 4.43765 5.99957 4.43765C6.85972 4.43765 7.56168 5.13961 7.56168 5.99976C7.56168 6.85992 6.85972 7.56187 5.99957 7.56187ZM8.50152 2.93765C8.19097 2.93765 7.94019 3.18843 7.94019 3.49898C7.94019 3.80953 8.19097 4.06031 8.50152 4.06031C8.81207 4.06031 9.06285 3.8107 9.06285 3.49898C9.06294 3.42524 9.04849 3.35221 9.02031 3.28406C8.99213 3.21592 8.95079 3.154 8.89865 3.10186C8.8465 3.04971 8.78459 3.00837 8.71644 2.98019C8.6483 2.95202 8.57526 2.93756 8.50152 2.93765ZM10.6847 5.99976C10.6847 5.35289 10.6906 4.71187 10.6543 4.06617C10.6179 3.31617 10.4468 2.65054 9.8984 2.10211C9.34879 1.5525 8.68433 1.38258 7.93433 1.34625C7.28746 1.30992 6.64644 1.31578 6.00074 1.31578C5.35386 1.31578 4.71285 1.30992 4.06715 1.34625C3.31715 1.38258 2.65152 1.55367 2.10308 2.10211C1.55347 2.65172 1.38355 3.31617 1.34722 4.06617C1.3109 4.71304 1.31675 5.35406 1.31675 5.99976C1.31675 6.64547 1.3109 7.28765 1.34722 7.93336C1.38355 8.68336 1.55465 9.34898 2.10308 9.89742C2.65269 10.447 3.31715 10.6169 4.06715 10.6533C4.71402 10.6896 5.35504 10.6837 6.00074 10.6837C6.64761 10.6837 7.28863 10.6896 7.93433 10.6533C8.68433 10.6169 9.34996 10.4459 9.8984 9.89742C10.448 9.34781 10.6179 8.68336 10.6543 7.93336C10.6918 7.28765 10.6847 6.64664 10.6847 5.99976ZM9.65347 8.76304C9.56793 8.97632 9.4648 9.1357 9.29957 9.29976C9.13433 9.465 8.97613 9.56812 8.76285 9.65367C8.14644 9.89859 6.68277 9.84351 5.99957 9.84351C5.31636 9.84351 3.85152 9.89859 3.23511 9.65484C3.02183 9.56929 2.86246 9.46617 2.6984 9.30093C2.53316 9.1357 2.43004 8.9775 2.34449 8.76422C2.10074 8.14664 2.15582 6.68297 2.15582 5.99976C2.15582 5.31656 2.10074 3.85172 2.34449 3.23531C2.43004 3.02203 2.53316 2.86265 2.6984 2.69859C2.86363 2.53453 3.02183 2.43023 3.23511 2.34468C3.85152 2.10093 5.31636 2.15601 5.99957 2.15601C6.68277 2.15601 8.14761 2.10093 8.76402 2.34468C8.9773 2.43023 9.13668 2.53336 9.30074 2.69859C9.46597 2.86383 9.5691 3.02203 9.65465 3.23531C9.8984 3.85172 9.84332 5.31656 9.84332 5.99976C9.84332 6.68297 9.8984 8.14664 9.65347 8.76304Z" fill="black"/>
</svg>
