<svg width="12" height="12" viewBox="0 0 12 12" fill="none" xmlns="http://www.w3.org/2000/svg">
<g clip-path="url(#clip0_1827_36)">
<path d="M4.74075 4.512C4.53825 4.377 3.86625 3.9105 3.86625 3.9105C4.43325 3.09975 5.181 2.784 6.21525 2.784C6.9465 2.784 7.5675 3.02925 8.01075 3.495C8.454 3.96075 8.70675 4.62675 8.7645 5.478C9.0105 5.5815 9.23675 5.7025 9.44325 5.841C10.275 6.39975 10.7325 7.236 10.7325 8.19375C10.7325 10.2308 9.063 12 6.0405 12C3.4455 12 0.75 10.4902 0.75 5.9955C0.75 1.5255 3.3615 0 6.033 0C7.2675 0 10.1625 0.18225 11.25 3.777L10.23 4.04175C9.387 1.4805 7.62225 1.0725 6.0045 1.0725C3.33075 1.0725 1.818 2.70075 1.818 6.165C1.818 9.27225 3.5085 10.9222 6.0405 10.9222C8.12325 10.9222 9.67575 9.84 9.67575 8.25525C9.67575 7.17675 8.76975 6.66 8.72325 6.66C8.54625 7.5855 8.07225 9.1425 5.99025 9.1425C4.77675 9.1425 3.7305 8.304 3.7305 7.206C3.7305 5.6385 5.2185 5.07075 6.393 5.07075C6.8325 5.07075 7.3635 5.10075 7.64025 5.15625C7.64025 4.6785 7.23525 3.86025 6.21525 3.86025C5.27775 3.86025 5.04075 4.164 4.74 4.51125L4.74075 4.512ZM6.537 6.1425C5.007 6.1425 4.809 6.795 4.809 7.2045C4.809 7.863 5.59125 8.0805 6.009 8.0805C6.774 8.0805 7.55925 7.869 7.683 6.26325C7.30748 6.17564 6.92253 6.13508 6.537 6.1425Z" fill="black"/>
</g>
<defs>
<clipPath id="clip0_1827_36">
<rect width="12" height="12" fill="white"/>
</clipPath>
</defs>
</svg>
